HIERARCHY
ROOT joint_Root
{
	OFFSET 0.0 0.0 0.0
	CHANNELS 6 Xposition Yposition Zposition Zrotation Xrotation Yrotation 
	JOINT Hips
	{
		OFFSET 4.5925 91.4895 -427.239
		CHANNELS 6 Xposition Yposition Zposition Zrotation Xrotation Yrotation 
		JOINT Spine
		{
			OFFSET 15.7357 0.0 0.0
			CHANNELS 6 Xposition Yposition Zposition Zrotation Xrotation Yrotation 
			JOINT Chest
			{
				OFFSET 8.98455 -0.406207 0.0
				CHANNELS 6 Xposition Yposition Zposition Zrotation Xrotation Yrotation 
				JOINT Neck
				{
					OFFSET 16.3773 0.0 0.0
					CHANNELS 6 Xposition Yposition Zposition Zrotation Xrotation Yrotation 
					JOINT Head
					{
						OFFSET 6.45672 0.0 0.0
						CHANNELS 6 Xposition Yposition Zposition Zrotation Xrotation Yrotation 
						End Site
						{
							OFFSET 0.0 0.0 0.0
						}
					}
				}
				JOINT Shoulder_L
				{
					OFFSET 12.9942 -0.242716 4.98039
					CHANNELS 6 Xposition Yposition Zposition Zrotation Xrotation Yrotation 
					JOINT UpperArm_L
					{
						OFFSET 5.34809 0.0 0.0
						CHANNELS 6 Xposition Yposition Zposition Zrotation Xrotation Yrotation 
						JOINT LowerArm_L
						{
							OFFSET 24.3286 1.87007e-05 0.0
							CHANNELS 6 Xposition Yposition Zposition Zrotation Xrotation Yrotation 
							JOINT Hand_L
							{
								OFFSET 22.2916 0.0 0.0
								CHANNELS 6 Xposition Yposition Zposition Zrotation Xrotation Yrotation 
								End Site
								{
									OFFSET 0.0 0.0 0.0
								}
							}
						}
					}
				}
				JOINT Shoulder_R
				{
					OFFSET 12.9945 -0.242716 -4.98039
					CHANNELS 6 Xposition Yposition Zposition Zrotation Xrotation Yrotation 
					JOINT UpperArm_R
					{
						OFFSET -5.34813 0.0 0.0
						CHANNELS 6 Xposition Yposition Zposition Zrotation Xrotation Yrotation 
						JOINT LowerArm_R
						{
							OFFSET -24.3289 0.000322201 0.0
							CHANNELS 6 Xposition Yposition Zposition Zrotation Xrotation Yrotation 
							JOINT Hand_R
							{
								OFFSET -22.2915 -0.000108084 0.0
								CHANNELS 6 Xposition Yposition Zposition Zrotation Xrotation Yrotation 
								End Site
								{
									OFFSET 0.0 0.0 0.0
								}
							}
						}
					}
				}
			}
		}
		JOINT UpperLeg_L
		{
			OFFSET -2.19248 -6.46944 0.0
			CHANNELS 6 Xposition Yposition Zposition Zrotation Xrotation Yrotation 
			JOINT LowerLeg_L
			{
				OFFSET 39.0811 0.0 -1.23785e-05
				CHANNELS 6 Xposition Yposition Zposition Zrotation Xrotation Yrotation 
				JOINT Foot_L
				{
					OFFSET 40.9854 0.0 -1.26872e-05
					CHANNELS 6 Xposition Yposition Zposition Zrotation Xrotation Yrotation 
					JOINT Toes_L
					{
						OFFSET 11.7543 0.0 0.0
						CHANNELS 6 Xposition Yposition Zposition Zrotation Xrotation Yrotation 
						End Site
						{
							OFFSET 0.0 0.0 0.0
						}
					}
				}
			}
		}
		JOINT UpperLeg_R
		{
			OFFSET -2.19251 6.46944 0.0
			CHANNELS 6 Xposition Yposition Zposition Zrotation Xrotation Yrotation 
			JOINT LowerLeg_R
			{
				OFFSET -39.0811 -0.00228153 -0.0401928
				CHANNELS 6 Xposition Yposition Zposition Zrotation Xrotation Yrotation 
				JOINT Foot_R
				{
					OFFSET -40.9854 0.0 0.0
					CHANNELS 6 Xposition Yposition Zposition Zrotation Xrotation Yrotation 
					JOINT Toes_R
					{
						OFFSET -11.7543 0.0 0.0
						CHANNELS 6 Xposition Yposition Zposition Zrotation Xrotation Yrotation 
						End Site
						{
							OFFSET 0.0 0.0 0.0
						}
					}
				}
			}
		}
	}
}
MOTION
Frames:	4
Frame Time:	0.0333333
0.000000 0.000000 0.000000 0.000000 0.000000 -0.000000 128.154000 89.799600 140.412000 90.898300 -42.148100 1.232690 15.735700 0.000005 -0.000001 84.269400 81.236300 -84.407800 8.984550 -0.406207 -0.000000 9.675010 -1.742010 -0.129050 16.377300 -0.000001 -0.000001 2.383890 -15.648000 4.343790 6.456720 -0.000001 -0.000000 1.733270 -20.178800 12.242300 12.994200 -0.242716 4.980390 -90.130500 0.424709 -72.918700 5.348090 -0.000007 -0.000001 -70.651100 29.585800 -8.165560 24.328600 0.000019 0.000005 6.121910 20.016500 -17.398200 22.291600 -0.000001 0.000005 9.927000 5.206810 2.548030 12.994500 -0.242716 -4.980390 88.362600 7.949600 -78.321800 -5.348130 -0.000001 -0.000004 -60.637100 29.131300 -14.563900 -24.328900 0.000322 -0.000009 -2.126220 -2.549640 -39.833000 -22.291500 -0.000108 -0.000004 17.444800 5.424600 -3.754620 -2.192480 -6.469440 -0.000000 -169.953000 -0.496233 -22.401000 39.081100 -0.000007 -0.000012 -0.154790 0.371585 22.615100 40.985400 -0.000006 -0.000013 -10.080600 7.180640 -57.530600 11.754300 -0.000000 0.000003 -0.003028 -0.040922 -18.241000 -2.192510 6.469440 -0.000001 -177.840000 3.819210 169.285000 -39.081100 -0.002282 -0.040193 0.018328 -0.020882 35.760500 -40.985400 0.000008 0.000006 13.378600 6.706380 -75.399200 -11.754300 -0.000006 -0.000006 -0.002257 -0.031891 -17.869900
0.000000 0.000000 0.000000 0.000000 0.000000 -0.000000 127.880000 89.550800 142.663000 91.517600 -44.441600 1.501120 15.735700 0.000005 -0.000001 82.882200 81.247700 -83.425600 8.984550 -0.406207 -0.000000 9.598640 -2.164920 -0.904196 16.377300 -0.000001 -0.000001 2.704370 -15.325800 4.318330 6.456720 -0.000001 -0.000000 1.794870 -19.826800 12.293300 12.994200 -0.242716 4.980390 -90.156900 0.513148 -73.004600 5.348090 -0.000007 -0.000001 -69.432200 29.696700 -9.643360 24.328600 0.000019 0.000005 6.021280 20.353400 -16.870800 22.291600 -0.000001 0.000005 10.214200 5.196420 2.808830 12.994500 -0.242716 -4.980390 88.354800 8.118910 -78.504600 -5.348130 -0.000001 -0.000004 -60.916600 29.461300 -14.737500 -24.328900 0.000322 -0.000009 -2.238150 -2.664900 -40.035900 -22.291500 -0.000108 -0.000004 17.623600 5.429450 -3.920290 -2.192480 -6.469440 -0.000000 -171.964000 -4.144030 -23.859700 39.081100 -0.000007 -0.000012 -0.109037 0.248257 23.711600 40.985400 -0.000006 -0.000013 -8.569650 10.541600 -54.963400 11.754300 -0.000000 0.000003 -0.002961 -0.040165 -18.210200 -2.192510 6.469440 -0.000001 -179.398000 2.271290 169.833000 -39.081100 -0.002282 -0.040193 0.016969 -0.018321 36.753400 -40.985400 0.000008 0.000006 12.835700 7.454600 -76.826400 -11.754300 -0.000006 -0.000006 -0.031765 -0.065046 -17.824800
0.000000 0.000000 0.000000 0.000000 0.000000 -0.000000 127.472000 89.190000 145.260000 92.350300 -46.748700 2.132460 15.735700 0.000005 -0.000001 81.305800 81.300900 -82.257400 8.984550 -0.406207 -0.000000 9.418340 -2.628670 -1.685310 16.377300 -0.000001 -0.000001 3.115150 -15.031700 4.166890 6.456720 -0.000001 -0.000000 2.092680 -19.484600 12.215100 12.994200 -0.242716 4.980390 -90.199400 0.649405 -72.934400 5.348090 -0.000007 -0.000001 -68.124700 29.733200 -11.280600 24.328600 0.000019 0.000005 6.015160 20.471400 -16.766700 22.291600 -0.000001 0.000005 10.386700 5.188320 3.010380 12.994500 -0.242716 -4.980390 88.342900 8.229340 -78.573300 -5.348130 -0.000001 -0.000004 -61.188600 29.896500 -14.489200 -24.328900 0.000322 -0.000009 -2.130590 -2.575740 -39.604200 -22.291500 -0.000108 -0.000004 17.473200 5.434030 -4.077710 -2.192480 -6.469440 -0.000000 -173.457000 -5.637050 -24.434700 39.081100 -0.000007 -0.000012 -0.113017 0.219460 27.247700 40.985400 -0.000006 -0.000013 -6.918550 10.581100 -52.192500 11.754300 -0.000000 0.000003 -0.002306 -0.032486 -17.897800 -2.192510 6.469440 -0.000001 178.844000 0.401696 170.521000 -39.081100 -0.002282 -0.040193 0.018350 -0.019232 38.075300 -40.985400 0.000008 0.000006 12.169900 7.896150 -78.193700 -11.754300 -0.000006 -0.000006 -0.443616 -0.549786 -18.304500
0.000000 0.000000 0.000000 0.000000 0.000000 -0.000000 126.932000 88.874700 147.828000 93.048100 -48.734000 2.748230 15.735700 0.000005 -0.000001 79.787300 81.344800 -81.061800 8.984550 -0.406207 -0.000000 9.246790 -3.068690 -2.299080 16.377300 -0.000001 -0.000001 3.269970 -14.913800 3.992620 6.456720 -0.000001 -0.000000 2.461720 -19.087700 12.106000 12.994200 -0.242716 4.980390 -90.302100 0.990365 -73.033700 5.348090 -0.000007 -0.000001 -66.643500 29.216900 -13.045900 24.328600 0.000019 0.000005 6.172010 20.333300 -17.286800 22.291600 -0.000001 0.000005 10.827200 5.180970 3.191980 12.994500 -0.242716 -4.980390 88.218200 8.635250 -78.294600 -5.348130 -0.000001 -0.000004 -61.273600 30.172500 -13.773300 -24.328900 0.000322 -0.000009 -1.893170 -2.342140 -38.950300 -22.291500 -0.000108 -0.000004 17.288500 5.430580 -3.958930 -2.192480 -6.469440 -0.000000 -174.472000 -6.708700 -24.991500 39.081100 -0.000007 -0.000012 -0.110927 0.177281 32.035100 40.985400 -0.000006 -0.000013 -5.630680 9.625650 -56.309800 11.754300 -0.000000 0.000003 -0.000008 -0.000114 -16.582000 -2.192510 6.469440 -0.000001 177.422000 -1.441460 170.786000 -39.081100 -0.002282 -0.040193 0.021705 -0.022016 39.927600 -40.985400 0.000008 0.000006 11.604600 7.913990 -78.004500 -11.754300 -0.000006 -0.000006 -1.412660 -1.645330 -20.108000
